<svg width="32" height="32" viewBox="0 0 32 32" fill="none" xmlns="http://www.w3.org/2000/svg">
<g clip-path="url(#clip0_1:2)">
<path d="M11.3203 4.66635L1.98954 0.66634L0.656574 4.66635L3.32252 15.9997L28.6489 15.3331L31.3148 4.66635L29.3155 0.66634L20.6511 4.66635H11.3203Z" fill="#333333"/>
<path d="M9.33333 12L23.3333 13.3333L23.996 21.3333H9.33333V12Z" fill="#FF0A0A"/>
<path d="M18.6515 22.6664H10.6536V26.6664H18.6515V22.6664Z" fill="#333333" fill-opacity="0.71"/>
<g filter="url(#filter0_i_1:2)">
<path d="M2.10832 14.2189C2.3034 14.4415 2.35913 14.7476 2.27553 14.998L0.296975 21.1197C0.24124 21.2868 0.24124 21.4537 0.296975 21.5928L2.02472 27.5197C2.16405 27.9651 2.60993 28.2155 3.02793 28.0763L8.9636 26.4345C9.2144 26.3511 9.49307 26.4345 9.716 26.6015L10.7471 27.4363C10.7749 27.4641 10.7749 27.4641 10.8028 27.4641L13.3665 29.2451C13.5059 29.3285 13.6731 29.3841 13.8403 29.3841H18.1319C18.2991 29.3841 18.4663 29.3285 18.6056 29.2451L21.1693 27.4641C21.1972 27.4641 21.1972 27.4363 21.2251 27.4363L22.2561 26.6015C22.4512 26.4345 22.7299 26.3789 23.0085 26.4345L28.9441 28.0763C29.3901 28.1876 29.836 27.9372 29.9475 27.5197L31.6752 21.5928C31.7309 21.4259 31.7309 21.2589 31.6752 21.1197L29.6967 14.998C29.6131 14.7197 29.6688 14.4415 29.8639 14.2189L31.9817 4.73021C32.0096 4.59108 32.0096 4.45196 31.9539 4.31283L30.6999 0.556301C30.5605 0.111084 30.0589 -0.111524 29.6131 0.0554323L20.3612 3.50587C20.2776 3.53369 20.1661 3.56152 20.0825 3.56152H11.8896C11.7782 3.56152 11.6946 3.53369 11.611 3.50587L2.35913 0.0554323C1.91325 -0.111524 1.41165 0.111084 1.27232 0.556301L0.0461715 4.31283C-0.00956243 4.42413 -0.00956243 4.59108 0.0183045 4.73021L2.10832 14.2189ZM18.6613 19.0049L19.358 17.558C19.4416 17.3911 19.6645 17.3076 19.8317 17.3911L21.5037 18.1424C21.8103 18.2815 21.7824 18.7268 21.448 18.838L19.1072 19.5337C18.8007 19.6172 18.522 19.3111 18.6613 19.0049ZM18.522 8.95979C18.3548 8.82065 18.3548 8.54239 18.5499 8.43108L29.0835 1.22413C29.2508 1.11282 29.5016 1.16848 29.5852 1.39108L30.8949 4.98065C30.9228 5.03631 30.9228 5.09196 30.8949 5.17543L28.7491 13.4397C28.6933 13.6068 28.5261 13.6903 28.3589 13.6345L22.5627 12.0763C22.5069 12.0763 22.4791 12.0485 22.4512 12.0207L18.522 8.95979ZM13.4223 26.0451L13.6173 24.4311C13.6173 24.3476 13.6731 24.2641 13.7567 24.2085L14.1468 23.9303C14.2025 23.9024 14.2583 23.8745 14.314 23.8745H17.6024C17.6581 23.8745 17.7417 23.9024 17.7696 23.9303L18.1597 24.2085C18.2433 24.2641 18.2712 24.3476 18.2991 24.4311L18.4663 26.0451C18.4941 26.2397 18.3269 26.4068 18.1597 26.4068H13.7009C13.5616 26.4068 13.4223 26.2397 13.4223 26.0451ZM10.4684 18.1424L12.1404 17.3911C12.3355 17.3076 12.5306 17.3911 12.6142 17.558L13.3108 19.0049C13.4501 19.2832 13.1715 19.5893 12.865 19.5059L10.4963 18.8103C10.1897 18.7268 10.1619 18.2815 10.4684 18.1424ZM1.07725 5.14761C1.04938 5.09196 1.07725 5.00848 1.07725 4.95283L2.387 1.39108C2.4706 1.1963 2.7214 1.11282 2.8886 1.22413L13.4223 8.43108C13.6173 8.57021 13.6173 8.82065 13.4501 8.95979L9.52093 12.0207C9.49307 12.0485 9.43733 12.0763 9.40947 12.0763L3.61315 13.6345C3.44593 13.6903 3.27873 13.6068 3.223 13.4397L1.07725 5.14761Z" fill="black"/>
</g>
</g>
<defs>
<filter id="filter0_i_1:2" x="0" y="0" width="32" height="33.3841" filterUnits="userSpaceOnUse" color-interpolation-filters="sRGB">
<feFlood flood-opacity="0" result="BackgroundImageFix"/>
<feBlend mode="normal" in="SourceGraphic" in2="BackgroundImageFix" result="shape"/>
<feColorMatrix in="SourceAlpha" type="matrix" values="0 0 0 0 0 0 0 0 0 0 0 0 0 0 0 0 0 0 127 0" result="hardAlpha"/>
<feOffset dy="4"/>
<feGaussianBlur stdDeviation="2"/>
<feComposite in2="hardAlpha" operator="arithmetic" k2="-1" k3="1"/>
<feColorMatrix type="matrix" values="0 0 0 0 0 0 0 0 0 0 0 0 0 0 0 0 0 0 0.25 0"/>
<feBlend mode="normal" in2="shape" result="effect1_innerShadow_1:2"/>
</filter>
<clipPath id="clip0_1:2">
<rect width="32" height="32" fill="white"/>
</clipPath>
</defs>
</svg>
